<svg xmlns="http://www.w3.org/2000/svg" viewBox="0 0 24 24" width="24" height="24" fill="none" stroke="currentColor" stroke-width="2" stroke-linecap="round" stroke-linejoin="round">
  <path d="M3 7V5a2 2 0 0 1 2-2h2"/>
  <path d="M17 3h2a2 2 0 0 1 2 2v2"/>
  <path d="M21 17v2a2 2 0 0 1-2 2h-2"/>
  <path d="M7 21H5a2 2 0 0 1-2-2v-2"/>
  <line x1="7" y1="8" x2="7" y2="16"/>
  <line x1="10" y1="8" x2="10" y2="16"/>
  <line x1="13" y1="8" x2="13" y2="16"/>
  <line x1="16" y1="8" x2="16" y2="16"/>
</svg>
