<svg xmlns="http://www.w3.org/2000/svg" width="195.702" height="22"><g fill="#1a1818" data-name="그룹 1"><path d="M13.878.032V2.24l-.882-.909a2.96 2.96 0 0 0-2.124-.885h-7.69v9.385h3.217a2.96 2.96 0 0 0 2.125-.886l.882-.911v4l-.879-.906a2.96 2.96 0 0 0-2.124-.886h-3.22v7.7a2.7 2.7 0 0 0 .929 2.023l.089.078h-4.2l.084-.074a2.7 2.7 0 0 0 .93-2.023V2.131A2.7 2.7 0 0 0 .085.108L0 .033Z" data-name="패스 1"/><path d="M35.047 21.995H35c-1.8.024-2.963 0-4.1-.8a4.04 4.04 0 0 1-1.317-1.8 18.6 18.6 0 0 1-.741-2.767q-.049-.192-.1-.373l-.1-.331c-.076-.205-.159-.386-.222-.568-.08-.173-.174-.323-.246-.48s-.182-.275-.26-.41a3 3 0 0 0-.268-.358 2.5 2.5 0 0 0-.268-.318c-.094-.1-.18-.2-.271-.288l-.286-.255a5 5 0 0 0-1.34-.842 5.5 5.5 0 0 0-2.105-.434h-4.845v5.97a2.7 2.7 0 0 0 .93 2.023l.086.076h-4.2l.086-.076a2.7 2.7 0 0 0 .93-2.023V2.134a2.7 2.7 0 0 0-.935-2.021l-.086-.076H23.4a12.4 12.4 0 0 1 2.648.292 9.7 9.7 0 0 1 2 .644 5.9 5.9 0 0 1 1.987 1.477 5.5 5.5 0 0 1 .906 1.441 5.7 5.7 0 0 1 .293.984 3 3 0 0 1 .083.556l.02.294c.007.101.008.2.01.282s0 .181-.01.281-.013.2-.02.294a3 3 0 0 1-.083.556 5.7 5.7 0 0 1-.293.984 5.5 5.5 0 0 1-.906 1.443 5.95 5.95 0 0 1-1.987 1.476 9.7 9.7 0 0 1-2 .644q-.191.041-.393.08h.018a10 10 0 0 1 1.793.412l.453.174c.151.068.3.151.463.237a3 3 0 0 1 .479.307 3.5 3.5 0 0 1 .491.4 5.5 5.5 0 0 1 .485.514c.144.2.309.413.45.652.124.245.264.51.382.793l.153.441.126.46a16 16 0 0 1 .289 1.6c.063.446.11.822.166 1.141a4.1 4.1 0 0 0 .447 1.451 2.3 2.3 0 0 0 1.078.915q.2.088.411.156a4 4 0 0 0 .491.09 10 10 0 0 0 1.218.071Zm-11.6-10.436a5.6 5.6 0 0 0 2.388-.519 5.5 5.5 0 0 0 1.474-1.025 7 7 0 0 0 1.17-1.494 5.6 5.6 0 0 0 .487-1.074 5 5 0 0 0 .148-.664 2 2 0 0 0 .043-.366c0-.064.006-.129.01-.193s.006-.128.008-.22 0-.156-.008-.22-.007-.129-.01-.193a2 2 0 0 0-.043-.366 5 5 0 0 0-.148-.664 5.6 5.6 0 0 0-.487-1.076 7 7 0 0 0-1.174-1.5A5.5 5.5 0 0 0 25.816.957a5.7 5.7 0 0 0-2.418-.514h-4.874v11.119h4.924Z" data-name="패스 2"/><path d="m46.916 18.742.882-.909v2.205H34.07l.085-.074a2.7 2.7 0 0 0 .93-2.023V2.13a2.7 2.7 0 0 0-.93-2.023L34.07.032h13.725V2.24l-.882-.909a2.96 2.96 0 0 0-2.124-.885H37.25V9.83h3.218a2.96 2.96 0 0 0 2.123-.885l.883-.911v4l-.879-.907a2.96 2.96 0 0 0-2.123-.885H37.25v9.383h7.541a2.96 2.96 0 0 0 2.125-.883" data-name="패스 3"/><path d="m62.526 18.742.883-.909v2.205H49.68l.086-.074a2.7 2.7 0 0 0 .93-2.023V2.13a2.7 2.7 0 0 0-.93-2.023L49.68.032h13.726V2.24l-.882-.909a2.96 2.96 0 0 0-2.125-.885h-7.537V9.83h3.218a2.96 2.96 0 0 0 2.123-.885l.883-.911v4l-.879-.907a2.96 2.96 0 0 0-2.124-.885h-3.222v9.383h7.541a2.96 2.96 0 0 0 2.124-.883" data-name="패스 4"/><path d="m95.973 19.966.087.076h-4.2l.086-.076a2.7 2.7 0 0 0 .93-2.023v-16l-8.45 18.1-8.547-18.307v16.08a2.7 2.7 0 0 0 1.027 2.105l.156.125h-2.8l.156-.125a2.7 2.7 0 0 0 1.028-2.106V2.894a2.7 2.7 0 0 0-.93-2.023l-.954-.839h3.9l7.916 16.953L93.293.032h2.769l-.087.076a2.7 2.7 0 0 0-.93 2.023v15.811a2.7 2.7 0 0 0 .928 2.024" data-name="패스 5"/><path d="M116.65 15.018a9.2 9.2 0 0 1-2.186 2.646 11 11 0 0 1-1.194.868l-.657.363c-.217.129-.469.217-.711.334a10 10 0 0 1-2.74.74 8 8 0 0 1-1.052.072h-.011a8 8 0 0 1-1.052-.072 10 10 0 0 1-2.74-.74c-.242-.116-.493-.2-.711-.332l-.657-.364a11 11 0 0 1-1.194-.868 9.2 9.2 0 0 1-2.186-2.646 10.63 10.63 0 0 1 0-10 9.2 9.2 0 0 1 2.186-2.646 11 11 0 0 1 1.194-.868l.657-.364c.217-.128.47-.216.711-.333a10 10 0 0 1 2.74-.739 8 8 0 0 1 1.054-.074h.01a8 8 0 0 1 1.052.074 10 10 0 0 1 2.74.739c.242.117.493.2.711.333l.657.364a11 11 0 0 1 1.194.868 9.2 9.2 0 0 1 2.186 2.646 10.63 10.63 0 0 1-.001 9.999m-1.728-9.25a10.8 10.8 0 0 0-1.413-2.551 9 9 0 0 0-.85-.975l-.509-.434a6 6 0 0 0-.582-.4 6.63 6.63 0 0 0-3.459-.989h-.076a6.6 6.6 0 0 0-3.415 1l-.3.2-.144.1-.132.11-.5.431a9 9 0 0 0-.842.971 10.8 10.8 0 0 0-1.408 2.546 11.6 11.6 0 0 0 0 8.5 10.8 10.8 0 0 0 1.414 2.552 9 9 0 0 0 .85.975l.509.434a6 6 0 0 0 .582.4 6.63 6.63 0 0 0 3.458.99h.077a6.6 6.6 0 0 0 3.416-1l.3-.2.145-.1.132-.11.5-.431a9 9 0 0 0 .842-.971 10.8 10.8 0 0 0 1.408-2.546 11.58 11.58 0 0 0-.003-8.502" data-name="패스 6"/><path d="m141.818 19.966.087.076h-4.2l.086-.076a2.7 2.7 0 0 0 .93-2.023v-16l-8.45 18.1-8.545-18.315v16.088a2.7 2.7 0 0 0 1.027 2.105l.156.125h-2.8l.156-.125a2.7 2.7 0 0 0 1.028-2.106V2.894a2.7 2.7 0 0 0-.93-2.023l-.954-.839h3.9l7.915 16.953L139.14.032h2.769l-.087.076a2.7 2.7 0 0 0-.93 2.023v15.811a2.7 2.7 0 0 0 .926 2.024" data-name="패스 7"/><path d="m157.152 18.742.882-.909v2.205h-13.729l.085-.074a2.7 2.7 0 0 0 .93-2.023V2.13a2.7 2.7 0 0 0-.93-2.023l-.085-.075h13.726V2.24l-.881-.909a2.96 2.96 0 0 0-2.125-.885h-7.537V9.83h3.218a2.96 2.96 0 0 0 2.123-.885l.883-.911v4l-.879-.907a2.96 2.96 0 0 0-2.124-.885h-3.222v9.383h7.541a2.96 2.96 0 0 0 2.124-.883" data-name="패스 8"/><path d="m177.028 0-.155.125a2.7 2.7 0 0 0-1.028 2.105v17.8l-14.355-19-.014.007v16.775a2.7 2.7 0 0 0 1.027 2.106l.156.124h-2.8l.156-.125a2.7 2.7 0 0 0 1.027-2.105V2.263a2.7 2.7 0 0 0-1.027-2.105l-.156-.125h3.544l12.005 15.892V2.23A2.7 2.7 0 0 0 174.38.125L174.225 0Z" data-name="패스 9"/><path d="M195.702.033V2.24l-.88-.909a2.96 2.96 0 0 0-2.124-.885h-4.574v17.5a2.7 2.7 0 0 0 .93 2.023l.086.076h-4.2l.086-.076a2.7 2.7 0 0 0 .93-2.023V.446h-4.574a2.96 2.96 0 0 0-2.125.885l-.881.909V.033Z" data-name="패스 10"/></g></svg>