<svg xmlns="http://www.w3.org/2000/svg" width="234" height="229" fill="none"><path fill="#212121" d="M50.98 93.759c0 4.217-2.476 7.628-7.032 7.628H40.98v8.741c0 1.28.56 2.085 1.892 2.085h.584v.592h-7.78v-.592h.42c1.426 0 2.033-.805 2.033-2.085V88.903c0-1.232-.584-2.085-2.033-2.085h-.42v-.616h8.481c4.416 0 6.823 3.222 6.823 7.557m-10.023-6.396v12.839h2.757c2.968 0 4.206-2.771 4.206-6.467s-1.192-6.396-4.136-6.396h-2.827zM58.014 113.35c-2.827 0-4.066-2.345-4.066-5.638v-9.404h-1.846v-.427c1.496-.734 2.968-1.99 4.136-3.506h.35v12.911c0 2.44.585 3.932 2.688 3.932 1.425 0 2.313-.568 3.364-2.061V98.284h-1.846v-.426c1.496-.735 2.968-1.99 4.136-3.506h.304v16.227l1.892.379v.473c-1.425.593-2.804 1.232-4.159 2.085h-.303v-3.411c-1.075 1.777-2.407 3.222-4.627 3.222zM73.271 110.721c0 .924.397 1.516 1.472 1.516h.49v.568h-6.471v-.568h.42c1.052 0 1.472-.592 1.472-1.516V98.284h-1.846v-.426c1.496-.735 2.968-1.99 4.136-3.506h.35v3.08c.865-1.635 1.987-2.938 3.388-2.938 1.122 0 1.753.64 1.753 1.658 0 1.019-.468 1.492-1.192 1.492-.864 0-1.121-.663-2.033-.663-.63 0-1.331.308-1.915 1.516v12.224zM86.099 109.37c0-1.729-.631-2.985-3.014-4.714-2.383-1.777-3.084-3.293-3.084-5.26 0-2.7 1.892-4.903 4.626-4.903 1.472 0 2.383.735 3.037 1.374V99.8h-.42l-.047-.307c-.234-2.204-.981-4.004-2.804-4.004-1.472 0-2.383 1.137-2.383 2.582s.63 2.511 3.037 4.335c2.384 1.848 3.178 3.577 3.178 5.781 0 3.363-2.196 5.187-4.907 5.187-1.472 0-2.617-.521-3.458-1.279v-3.908h.328l.35 1.018c.514 1.445 1.075 3.151 2.967 3.151 1.636 0 2.547-1.279 2.547-3.009zM96.005 113.35c-2.827 0-4.065-2.345-4.065-5.638v-9.404h-1.846v-.427c1.495-.734 2.967-1.99 4.135-3.506h.35v12.911c0 2.44.585 3.932 2.688 3.932 1.425 0 2.313-.568 3.364-2.061V98.284h-1.846v-.426c1.496-.735 2.968-1.99 4.136-3.506h.304v16.227l1.892.379v.473c-1.425.593-2.803 1.232-4.159 2.085h-.303v-3.411c-1.075 1.777-2.407 3.222-4.627 3.222zM114.137 111.218c1.495 0 2.967-1.018 3.785-3.221l.584.213c-1.051 3.293-2.664 5.188-5.351 5.188-3.598 0-6.238-3.838-6.238-9.405s2.547-9.475 6.122-9.475c2.593 0 4.719 2.06 5.257 5.922l-8.482-.213a18 18 0 0 0-.14 2.298c0 5.424 1.542 8.693 4.439 8.693zm-4.159-11.82h5.117c.233 0 .303-.095.303-.427-.023-1.99-.7-3.482-2.383-3.482-1.565 0-2.593 1.587-3.037 3.909M137.806 86.179c3.317 0 4.906 1.99 4.906 4.856 0 3.34-2.196 6.538-5.607 7.533 2.383.521 3.808 2.44 3.808 5.283 0 4.904-3.318 8.954-8.154 8.954h-7.874l.093-.521h.421c1.495 0 2.313-.805 2.617-2.084l5.117-21.368c.07-.284.093-.545.093-.758 0-.853-.491-1.35-1.635-1.35h-.468l.094-.522h6.542zm.514 17.648c0-2.724-1.005-4.406-3.435-4.406h-1.822l-2.898 12.271h2.594c3.434 0 5.561-4.051 5.561-7.888zm-2.337-16.535L133.32 98.45h1.425c3.388 0 5.28-4.217 5.28-7.533 0-2.085-.701-3.625-2.733-3.625h-1.332zM146.263 111.431c1.215 0 2.384-1.848 3.435-4.501l.491.237c-1.402 3.861-3.108 6.206-5.001 6.206-1.635 0-2.196-1.634-2.196-3.979 0-6.112 4.019-14.9 8.131-14.9 1.215 0 1.823.78 1.823 2.06 0 3.15-3.155 5.922-7.033 7.249-.421 1.658-.678 3.293-.678 4.714 0 1.848.281 2.914 1.052 2.914zm-.21-8.386c3.388-1.445 4.907-4.548 4.907-6.49 0-.688-.211-1.02-.631-1.02-1.355 0-3.225 3.625-4.276 7.534zM158.413 113.374c-.467 0-.561-.356-.561-.853 0-.593.257-1.516.561-2.488l2.874-8.836c-4.066 8.481-6.939 12.177-8.575 12.177-.584 0-.911-.522-.911-1.422 0-4.145 5.35-17.459 10.257-17.459.514 0 1.215.237 1.986.592l1.285-1.42.584.07-5.677 17.033a34 34 0 0 0 4.486-5.07l.42.356c-2.827 4.074-5.607 7.32-6.752 7.32zm-3.879-2.701c.655 0 3.435-3.696 8.131-13.621l.094-.285c-.584-.544-1.215-.995-1.916-.995-3.014 0-6.542 12.106-6.542 14.522 0 .284.093.379.257.379zM178.998 105.723l.42.355c-2.757 4.193-5.21 7.32-6.402 7.32-.49 0-.677-.379-.677-.948 0-.568.21-1.492.561-2.487l3.504-9.855c-4.345 9.239-7.36 13.314-9.346 13.314-.654 0-1.004-.664-1.004-1.706 0-.687.163-1.564.49-2.487l3.739-10.471q.28-.853.28-1.28c0-.236-.093-.426-.304-.426-.56 0-1.542 1.208-2.733 3.506l-.421-.213c1.472-3.34 3.365-5.827 4.837-5.827.771 0 1.074.52 1.074 1.302s-.28 1.848-.677 2.914l-3.645 10.234c-.21.569-.28.995-.28 1.35 0 .285.093.45.303.45.982 0 4.159-4.477 9.416-15.682h1.893l-5.257 15.73c1.472-1.422 2.827-3.127 4.206-5.07zM187.058 105.746l.398.308c-2.757 4.075-5.281 7.32-6.449 7.32-.467 0-.584-.355-.584-.853 0-.592.21-1.516.514-2.582l4.135-13.763h-2.873l.397-1.09h2.804l.864-2.866 1.916-1.374h.467l-1.261 4.264h3.084l-.351 1.09h-3.037l-4.276 14.545c1.402-1.374 2.944-3.151 4.276-4.975zM193.391 114.984c.467-5.851.28-17.956-.982-17.956-.514 0-1.285.924-2.546 3.364l-.374-.284c1.285-2.985 2.874-5.615 4.159-5.615 2.103 0 2.336 11.181 1.752 17.033 2.313-4.359 4.136-9.31 4.136-12.319 0-1.776-.538-2.06-.538-3.34 0-.853.421-1.374 1.169-1.374.841 0 1.144.782 1.144 1.99 0 5.993-8.785 25.774-14.836 25.774-1.005 0-1.542-.45-1.542-1.232 0-.711.49-1.279 1.121-1.279.795 0 .795.782 1.823.782 1.402 0 3.504-2.346 5.537-5.544zM78.155 145.639c0 1.279.63 2.084 2.032 2.084h.468v.593h-7.781v-.593h.42c1.426 0 2.033-.805 2.033-2.084v-21.226c0-1.279-.584-2.084-2.032-2.084h-.421v-.593h7.78v.593h-.467c-1.402 0-2.032.805-2.032 2.084zM96.169 146.255c0 .924.467 1.516 1.425 1.516h.467v.569H91.73v-.569h.374c1.005 0 1.472-.592 1.472-1.516v-9.689c0-2.7-.677-4.288-2.874-4.288-1.542 0-2.733.806-3.598 2.014v11.963c0 .924.374 1.516 1.472 1.516h.35v.569h-6.331v-.569h.42c1.052 0 1.472-.592 1.472-1.516v-12.437H82.64v-.426c1.496-.735 2.968-1.99 4.136-3.506h.35v3.364c1.075-1.659 2.594-3.222 4.837-3.222 2.944 0 4.23 2.582 4.23 6.183v10.044zM106.426 147.747h.42c1.426 0 2.033-.806 2.033-2.085v-21.225c0-1.232-.584-2.085-2.033-2.085h-.42v-.592h7.64c3.668 0 5.631 2.724 5.631 6.254 0 2.44-1.051 5.188-4.019 6.04 3.926.569 5.491 3.483 5.491 6.989 0 4.264-2.313 7.343-6.823 7.343h-7.92v-.639m5.28-24.85v10.992h1.472c2.547 0 3.598-2.559 3.598-5.781 0-2.913-.934-5.211-3.247-5.211zm0 12.176v12.105h2.617c2.687 0 3.809-2.653 3.809-6.064s-1.356-6.041-4.066-6.041h-2.383zM123.506 139.479c0-5.401 2.804-9.452 6.612-9.452s6.612 4.051 6.612 9.452-2.827 9.452-6.612 9.452-6.612-4.051-6.612-9.452m2.827 0c0 4.643 1.075 8.457 3.785 8.457s3.739-3.79 3.739-8.457c0-4.666-1.075-8.457-3.739-8.457s-3.785 3.791-3.785 8.457M146.473 130.596l-.233 1.35h-3.248v12.674c0 1.587.444 2.274 1.542 2.274.841 0 1.355-.427 1.963-1.161l.373.308c-.864 1.658-2.032 2.653-3.715 2.653-1.775 0-2.757-1.208-2.757-3.766v-12.982h-1.612v-.308a13.5 13.5 0 0 0 3.855-4.619h.351v3.577h3.505zM153.833 147.771h.351v.568h-6.309v-.568h.421c1.004 0 1.472-.592 1.472-1.516v-21.202h-1.893v-.474c1.612-.711 2.967-1.942 4.159-3.577h.304v12.247c1.121-1.658 2.617-3.221 4.86-3.221 2.944 0 4.229 2.582 4.229 6.182v10.045c0 .924.42 1.516 1.425 1.516h.444v.568h-6.332v-.568h.35c1.052 0 1.472-.592 1.472-1.516v-9.689c0-2.701-.63-4.288-2.873-4.288-1.543 0-2.687.805-3.599 2.014v11.963c0 .924.374 1.516 1.472 1.516zM37.873 164.542c0-4.145 2.944-7.841 6.542-7.841 2.033 0 3.318 1.066 4.066 2.416l-1.332 5.544h-.56c.28-1.303.42-2.156.42-2.985 0-2.416-.654-3.98-2.804-3.98-2.477 0-4.206 2.298-4.206 5.496 0 5.117 5.772 6.704 5.772 12.769 0 5.069-3.529 8.48-7.033 8.48-2.734 0-4.3-1.161-5.21-2.416l1.611-6.064h.561c-.303 1.397-.444 2.368-.444 3.221 0 2.559.912 4.264 3.645 4.264 2.897 0 4.72-2.771 4.72-6.135 0-5.543-5.748-6.917-5.748-12.769M51.379 182.499c1.215 0 2.383-1.847 3.434-4.501l.49.237c-1.401 3.862-3.107 6.207-5 6.207-1.635 0-2.196-1.635-2.196-3.98 0-6.112 4.02-14.9 8.131-14.9 1.215 0 1.823.781 1.823 2.06 0 3.151-3.154 5.923-7.033 7.249-.42 1.659-.678 3.293-.678 4.715 0 1.847.28 2.913 1.052 2.913zm-.21-8.386c3.387-1.445 4.906-4.548 4.906-6.491 0-.687-.21-1.018-.631-1.018-1.355 0-3.224 3.624-4.276 7.533zM62.453 168.476c0-.261-.07-.403-.28-.403-.63 0-1.425.995-2.757 3.506l-.444-.213c1.472-3.341 3.248-5.828 4.72-5.828.77 0 1.121.45 1.121 1.35 0 .711-.21 1.635-.63 2.843l-2.384 7.107c3.669-8.173 6.613-11.276 8.575-11.276.841 0 1.215.592 1.215 1.634 0 .711-.257 1.682-.584 2.772l-4.206 11.892c1.402-1.374 2.898-3.198 4.206-5.07l.42.356c-2.733 4.003-5.327 7.32-6.401 7.32-.444 0-.631-.379-.631-.924 0-.592.233-1.564.584-2.511l3.855-10.779c.164-.497.304-1.137.304-1.445 0-.403-.094-.545-.468-.545-1.355 0-4.72 3.933-9.252 15.659h-1.893l4.627-14.166c.187-.498.28-.924.28-1.232zM76.87 169.186c0 3.435 1.074 5.496 1.074 8.694 0 4.051-2.734 6.562-5.607 6.562-.912 0-1.683-.379-1.683-1.35 0-.664.468-1.161 1.169-1.161 1.144 0 .98 1.303 2.173 1.303 1.191 0 1.986-1.587 1.986-3.364 0-3.79-1.005-5.638-1.005-8.528 0-3.72 2.593-5.78 4.86-5.78.911 0 1.565.426 1.565 1.35 0 .568-.35 1.09-1.051 1.09-1.005 0-.771-1.374-1.916-1.374-.911 0-1.566 1.35-1.566 2.558M93.996 176.79l.42.356c-2.757 4.193-5.21 7.32-6.401 7.32-.491 0-.678-.379-.678-.948s.21-1.492.56-2.487l3.505-9.879c-4.345 9.239-7.36 13.314-9.346 13.314-.654 0-1.004-.664-1.004-1.706 0-.687.187-1.564.49-2.487l3.739-10.471q.28-.853.28-1.279c0-.237-.093-.427-.304-.427-.56 0-1.542 1.208-2.733 3.506l-.42-.213c1.471-3.34 3.364-5.827 4.836-5.827.77 0 1.075.521 1.075 1.302 0 .782-.28 1.848-.678 2.914l-3.645 10.234c-.21.568-.28.995-.28 1.35 0 .285.093.45.303.45.982 0 4.16-4.477 9.416-15.682h1.893l-5.257 15.73c1.472-1.422 2.827-3.127 4.206-5.07zM101.099 184.442c-.468 0-.561-.355-.561-.853 0-.592.257-1.516.561-2.487l2.873-8.836c-4.065 8.48-6.939 12.176-8.574 12.176-.585 0-.912-.521-.912-1.421 0-4.146 5.35-17.459 10.258-17.459.514 0 1.215.236 1.986.592l1.285-1.422.584.071-5.678 17.033a34 34 0 0 0 4.486-5.069l.421.355c-2.827 4.074-5.608 7.32-6.753 7.32zm-3.879-2.701c.654 0 3.435-3.695 8.131-13.621l.093-.284c-.584-.545-1.214-.995-1.915-.995-3.015 0-6.543 12.105-6.543 14.521 0 .285.094.379.257.379zM110.374 181.884a45 45 0 0 0 4.346-5.07l.374.308c-2.757 4.075-5.257 7.32-6.472 7.32-.444 0-.631-.379-.631-.924 0-.592.21-1.492.491-2.511l5.701-20.42h-1.823l.141-.474c1.705-.687 3.224-1.919 4.579-3.577h.304l-7.033 25.348zM120.212 169.707c.163-.521.28-.995.28-1.231 0-.285-.07-.427-.28-.427-.631 0-1.332.995-2.687 3.577l-.491-.237c1.495-3.34 3.248-5.827 4.766-5.827.725 0 1.052.521 1.052 1.35 0 .734-.327 1.99-.748 3.222l-3.995 11.655c1.425-1.374 3.014-3.127 4.346-4.999l.42.356c-2.757 4.051-5.35 7.32-6.519 7.32-.467 0-.63-.356-.63-.877 0-.639.28-1.587.63-2.582l3.856-11.252zm1.775-9.452c0-.876.631-1.516 1.496-1.516.864 0 1.495.64 1.495 1.516 0 .877-.677 1.493-1.495 1.493s-1.496-.569-1.496-1.493M130.398 176.814l.374.308c-2.757 4.074-5.28 7.32-6.449 7.32-.467 0-.584-.356-.584-.853 0-.592.211-1.516.514-2.582l4.136-13.764h-2.874l.374-1.09h2.804l.864-2.866 1.916-1.374h.467l-1.261 4.264h3.084l-.351 1.09h-3.037l-4.276 14.545c1.402-1.374 2.944-3.151 4.276-4.975zM136.731 186.053c.467-5.852.28-17.957-.982-17.957-.514 0-1.285.924-2.547 3.364l-.373-.284c1.285-2.985 2.874-5.614 4.159-5.614 2.102 0 2.336 11.181 1.752 17.032 2.313-4.359 4.136-9.31 4.136-12.318 0-1.777-.538-2.061-.538-3.34 0-.853.421-1.374 1.168-1.374.842 0 1.145.781 1.145 1.989 0 5.994-8.785 25.774-14.836 25.774-1.005 0-1.543-.45-1.543-1.232 0-.71.491-1.279 1.122-1.279.794 0 .794.782 1.822.782 1.402 0 3.505-2.345 5.538-5.543zM167.011 180.036c.701 2.298 1.472 3.222 2.734 3.222h.21v.592h-7.663v-.592h.654c1.542 0 1.635-1.351 1.075-3.198l-1.636-5.496h-7.383l-1.683 5.614c-.49 1.658-.467 3.08 1.052 3.08h.584v.592h-5.701v-.592h.21c1.285 0 2.056-.853 2.757-3.151l7.08-23.571h.561zm-4.976-6.609-3.365-11.182-3.365 11.182zM183.81 181.788c0 .924.468 1.516 1.426 1.516h.467v.569h-6.332v-.569h.374c1.005 0 1.472-.592 1.472-1.516v-9.689c0-2.7-.678-4.287-2.874-4.287-1.542 0-2.734.805-3.598 2.013v11.963c0 .924.397 1.516 1.472 1.516h.35v.569h-6.332v-.569h.421c1.051 0 1.472-.592 1.472-1.516v-12.437h-1.846v-.426c1.495-.734 2.967-1.99 4.136-3.506h.35v3.364c1.075-1.658 2.594-3.222 4.837-3.222 2.944 0 4.229 2.582 4.229 6.183v10.044zM192.947 184.441c-3.739 0-5.538-3.766-5.538-8.528 0-5.543 2.687-10.376 6.869-10.376 1.122 0 2.057.237 3.015.806v-5.78h-1.846v-.474c1.565-.711 2.967-1.943 4.159-3.577h.303v25.087l1.846.379v.473c-1.425.593-2.804 1.232-4.135 2.085h-.351v-2.843c-1.121 1.564-2.663 2.701-4.346 2.701zm4.346-13.313c0-3.151-1.262-4.619-3.225-4.619-2.617 0-3.995 3.198-3.995 7.628 0 4.998 1.215 8.196 4.159 8.196 1.145 0 2.056-.403 3.037-1.516v-9.689zM55.187 217.488c0 .9.49 1.398 1.659 1.398h.444l-.14.521h-7.524l.093-.521h.421c1.472 0 2.313-.806 2.617-2.085l5.117-21.368c.07-.284.093-.545.093-.758 0-.853-.49-1.35-1.635-1.35h-.468l.094-.521h7.383c3.879 0 5.398 2.369 5.398 5.401 0 5.117-3.435 9.618-8.505 9.618h-1.636l.14-.711 1.355-.071c3.645-.237 6.029-4.335 6.029-8.765 0-2.724-1.005-4.359-3.295-4.359h-2.126l-5.467 22.908c-.07.284-.07.521-.07.71zM70.257 218.034c1.215 0 2.384-1.848 3.435-4.501l.49.236c-1.401 3.862-3.107 6.207-5 6.207-1.635 0-2.196-1.635-2.196-3.98 0-6.112 4.02-14.9 8.131-14.9 1.215 0 1.823.781 1.823 2.061 0 3.15-3.154 5.922-7.033 7.249-.42 1.658-.678 3.292-.678 4.714 0 1.847.28 2.914 1.052 2.914zm-.21-8.386c3.388-1.446 4.907-4.549 4.907-6.491 0-.687-.21-1.019-.631-1.019-1.355 0-3.224 3.624-4.276 7.533zM81.215 204.152c0-.308-.093-.45-.35-.45-.56 0-1.402 1.018-2.664 3.434l-.467-.213c1.495-3.34 3.294-5.827 4.72-5.827.77 0 1.051.426 1.051 1.35 0 .64-.21 1.635-.63 2.843l-1.566 4.761c3.715-8.623 5.397-8.954 6.238-8.954.701 0 1.215.355 1.215 1.35 0 .805-.49 1.279-1.051 1.279-.654 0-.724-.426-1.332-.426-1.332 0-3.668 3.909-8.225 16.108h-1.822l4.58-13.976c.14-.474.28-.971.28-1.279zM79.276 227.035c0-.521.374-1.066 1.052-1.066 1.168 0 .864 1.729 2.313 1.729 1.542 0 2.757-1.706 4.206-7.13l4.72-17.815h-2.524l.14-.355 2.664-.64c1.846-6.964 4.696-9.333 7.313-9.333 1.402 0 2.313.663 2.313 1.516 0 .592-.374 1.019-1.051 1.019-1.052 0-.795-1.493-2.197-1.493-1.401 0-2.336 1.208-3.808 6.681l-.374 1.492h3.528l-.397 1.09h-3.458l-4.066 15.09c-2.196 8.196-4.976 10.778-7.944 10.778-1.565 0-2.406-.71-2.406-1.587zM106.192 205.928c0 5.496-3.645 14.048-7.64 14.048-1.963 0-2.827-1.729-2.827-4.833 0-5.495 3.598-14.047 7.64-14.047 1.963 0 2.827 1.729 2.827 4.832M97.5 216.967c0 1.398.304 2.085 1.122 2.085 2.313 0 5.771-9.878 5.771-14.948 0-1.397-.304-2.084-1.122-2.084-2.313 0-5.77 9.878-5.77 14.947M111.66 204.152c0-.308-.094-.45-.351-.45-.561 0-1.402 1.018-2.663 3.434l-.468-.213c1.496-3.34 3.295-5.827 4.72-5.827.771 0 1.051.426 1.051 1.35 0 .64-.21 1.635-.63 2.843l-1.566 4.761c3.715-8.623 5.397-8.954 6.239-8.954.7 0 1.215.355 1.215 1.35 0 .805-.491 1.279-1.052 1.279-.654 0-.724-.426-1.332-.426-1.332 0-3.668 3.909-8.224 16.108h-1.823l4.58-13.976c.14-.474.28-.971.28-1.279zM122.478 204.032c0-.236-.071-.355-.257-.355-.655 0-1.566 1.137-2.944 3.435l-.468-.213c1.753-3.411 3.598-5.828 5.141-5.828.7 0 1.004.427 1.004 1.161s-.28 1.777-.841 3.151l-2.173 5.259c3.715-6.846 6.472-9.571 8.225-9.571.794 0 1.144.498 1.144 1.303 0 .806-.303 1.919-.864 3.198l-2.266 5.354c3.785-7.059 6.659-9.855 8.411-9.855.794 0 1.145.498 1.145 1.351 0 .781-.304 1.871-.865 3.15l-4.976 11.774c1.472-1.374 3.154-3.222 4.556-5.07l.397.356c-3.037 4.05-5.841 7.32-6.939 7.32-.398 0-.561-.285-.561-.735 0-.639.35-1.634.794-2.7l4.556-10.732c.281-.663.468-1.231.468-1.634 0-.284-.07-.427-.374-.427-1.215 0-4.93 4.122-10.187 15.659h-2.056l5.771-13.598c.28-.71.467-1.231.467-1.587 0-.308-.14-.474-.421-.474-1.168 0-4.509 3.72-9.392 14.119l-.631 1.516h-1.846l5.678-14.189c.21-.498.304-.924.304-1.185zM143.833 219.975c-.467 0-.561-.355-.561-.853 0-.592.257-1.516.561-2.487l2.874-8.836c-4.066 8.481-6.94 12.176-8.575 12.176-.584 0-.911-.521-.911-1.421 0-4.146 5.35-17.459 10.257-17.459.514 0 1.215.237 1.986.592l1.285-1.421.584.071-5.678 17.032a34 34 0 0 0 4.487-5.069l.42.355c-2.827 4.075-5.608 7.32-6.752 7.32zm-3.879-2.7c.655 0 3.435-3.696 8.131-13.622l.094-.284c-.584-.545-1.215-.995-1.916-.995-3.014 0-6.542 12.105-6.542 14.521 0 .285.093.38.257.38zM155.913 204.009c0-.261-.07-.403-.28-.403-.631 0-1.425.995-2.757 3.506l-.444-.213c1.472-3.34 3.248-5.828 4.72-5.828.771 0 1.121.45 1.121 1.351 0 .71-.21 1.634-.631 2.842l-2.383 7.107c3.668-8.173 6.612-11.276 8.575-11.276.841 0 1.215.592 1.215 1.635 0 .71-.257 1.681-.584 2.771l-4.206 11.892c1.402-1.374 2.898-3.198 4.206-5.069l.421.355c-2.734 4.003-5.328 7.32-6.402 7.32-.444 0-.631-.379-.631-.924 0-.592.233-1.563.584-2.511l3.855-10.779c.164-.497.304-1.137.304-1.445 0-.402-.094-.544-.468-.544-1.355 0-4.719 3.932-9.252 15.658h-1.893l4.627-14.166c.187-.498.28-.924.28-1.232zM168.297 219.976c-1.683 0-2.243-1.587-2.243-4.075 0-5.566 3.668-14.805 8.832-14.805 1.145 0 1.775.521 1.775 1.374 0 .687-.514 1.232-1.074 1.232-1.005 0-.631-1.493-1.846-1.493-2.267 0-5.421 7.344-5.421 12.887 0 1.848.304 2.985 1.122 2.985 1.145 0 2.336-1.919 3.645-4.548l.49.26c-1.612 3.909-3.388 6.183-5.257 6.183zM179.115 218.034c1.215 0 2.383-1.848 3.434-4.501l.491.236c-1.402 3.862-3.107 6.207-5 6.207-1.636 0-2.196-1.635-2.196-3.98 0-6.112 4.019-14.9 8.131-14.9 1.215 0 1.822.781 1.822 2.061 0 3.15-3.154 5.922-7.033 7.249-.42 1.658-.677 3.292-.677 4.714 0 1.847.28 2.914 1.051 2.914zm-.21-8.386c3.387-1.446 4.906-4.549 4.906-6.491 0-.687-.21-1.019-.631-1.019-1.355 0-3.224 3.624-4.275 7.533zM26.8 3.764c.023.118.046.26.046.379 0 1.327-1.752 2.108-2.944 1.564-.607-.285-1.098-.83-1.659-1.209-1.495-.995-3.621-1.255-5.187-.355-3.434 1.943-4.509 6.657-5.093 10.329-.07.426-.701 7.012-.49 7.012h7.967v1.16h-8.015v35.96H6.262v-35.96H0v-1.16h6.309c.046 0 .327-2.346.607-3.672.958-4.667 3.13-8.576 6.472-11.916 2.29-2.274 6.169-4.003 9.51-3.98.724 0 2.15.119 2.78.474.537.284.981.805 1.122 1.398zM29.09 22.005h-5.164v36.552h5.163zM121.754.4h-5.163v58.181h5.163zM159.957 21.815h-5.164v36.766h5.164zM209.233 21.815h-5.164v36.766h5.164z"/><path fill="#212121" d="M44.347 24.113c.07.758-.398 1.54-1.122 1.777-.958.332-2.15-.047-2.92-.64-.491-.379-1.309-.97-2.477-.97-3.178 0-5.047 2.913-6.472 5.377-1.332 2.297-1.916 4.998-2.22 7.604-.093.829-.187 1.682-.187 2.535v-8.078s1.192-4.24 5.771-7.51c1.823-1.303 4.183-2.18 6.426-2.132 1.191 0 2.733.45 3.107 1.753.024.095.047.19.047.308zM84.254 41.975S80.47 55.857 65.305 55.146c-15.164-.71-16.823-14.971-15.865-19.07h25.515s3.271-.142 3.481-3.292c.21-3.175-2.476-12.816-15.07-11.56-12.594 1.255-17.126 12.105-17.874 18.05-.701 5.52 1.589 20.326 18.505 19.876 15.023-.403 21.005-17.151 21.005-17.151h-.748zm-34.346-9.784c1.799-5.306 6.145-8.717 11.449-9.475 9.696-1.374 11.355 7.557 11.355 10.044 0 2.511-1.8 2.511-1.8 2.511H49.628c-.257 0 .21-2.914.257-3.08z"/><path fill="#212121" d="M107.292 25.771c0 .38-.094.735-.304 1.019-.608.83-2.267.758-3.038.071-.841-.734-1.144-1.966-1.822-2.843-1.636-2.132-4.252-2.369-6.706-2.392-2.196-.024-4.462.545-6.378 1.73-.047.023-.117.07-.164.094-2.337 1.563-3.201 4.027-2.243 6.728 2.08 5.993 15.374 7.201 20.141 11.205 4.766 4.027 4.135 11.11-.701 14.924-5.141 4.027-14.113 3.672-19.93 1.468-1.38-.52-3.295-1.634-2.758-3.434.468-1.564 2.337-1.92 3.552-.948.63.498 1.051 1.635 1.612 2.653.42.782 1.659 1.706 2.36 2.014 2.453 1.042 6.005.616 8.528.142 2.196-.403 4.673-1.232 6.028-3.127.958-1.303 1.262-2.961 1.075-4.572-.187-1.635-1.075-3.08-2.266-4.17-2.617-2.368-6.099-3.53-9.44-4.406-4.626-1.208-11.122-4.193-11.73-9.736-.42-3.861 2.5-7.604 5.679-9.405 3.808-2.155 9.229-2.226 13.341-1.137 1.425.38 2.85.924 3.972 1.896.467.402.864.876 1.075 1.445.093.237.117.473.14.734zM146.241 31.67c-.608-3.648-2.22-7.035-5.514-8.836-2.991-1.634-6.636-1.824-9.837-.9-2.71.782-5.093 2.416-7.056 4.43-.935.971-1.729 1.848-2.337 3.056-.046.095-.093.166-.116.26-.584 1.303-.748 2.796-1.332 4.051 1.355-2.913 2.944-5.804 5.327-7.912 1.729-1.54 3.949-2.653 6.262-2.866 4.252-.356 7.757 2.44 9.136 6.443.724 2.085.584 6.254.584 6.254v22.931h5.163v-22.93s-.046-2.678-.257-3.98zM233.719 31.67c-.607-3.648-2.219-7.035-5.514-8.836-2.99-1.634-6.635-1.824-9.836-.9-2.711.782-5.094 2.416-7.057 4.43-.934.971-1.729 1.848-2.336 3.056-.047.095-.093.166-.117.26-.584 1.303-.748 2.796-1.332 4.051 1.356-2.913 2.944-5.804 5.328-7.912 1.729-1.54 3.948-2.653 6.261-2.866 4.253-.356 7.758 2.44 9.136 6.443.724 2.085.584 6.254.584 6.254v22.931H234v-22.93s-.047-2.678-.257-3.98zM171.312 27.927c.327.45.841.758 1.401.782.748.047 1.472-.403 1.846-1.042.514-.9.351-2.014.701-2.985.351-.995 1.215-1.753 2.173-2.18 2.897-1.35 6.986-1.373 9.533.759.374.308.701.663 1.005 1.066 1.051 1.421 1.542 3.387 1.425 5.14-.14 2.085-1.378 3.435-2.991 4.62-2.36 1.705-4.976 3.055-7.64 4.216 0 0-14.533 5.71-13.084 14.332s13.177 6.823 17.056 3.222c3.879-3.624 6.566-7.628 6.566-7.628v6.704s.046 4.43 3.738 4.075c3.692-.356 5.724-3.388 5.724-3.388l-.444-.308s-1.401 2.772-3.294.71c0 0-.701-.947-.654-2.581v-6.61s.187-1.966-1.542-2.179-2.991.71-3.972 2.724c-.958 2.014-5.117 7.96-9.557 8.67-4.439.711-8.458-1.918-8.808-5.756-.351-3.838 1.355-7.201 4.626-9.026 2.804-1.587 5.748-2.89 8.668-4.264 2.851-1.326 6.075-2.63 8.529-4.666 1.705-1.422 2.803-3.767 1.916-5.97-1.379-3.364-5.281-4.738-8.575-5.14a20.1 20.1 0 0 0-7.243.378c-2.384.593-5.141 1.564-6.683 3.625-.491.64-.841 1.492-.607 2.25.046.19.14.356.257.521zM161.545 11.51c-.911-.924-2.476-.64-2.99.545-.935 2.18-2.687 4.928-5.701 5.022v.593c.303-.048.56-.072.887-.119 3.762-.663 6.239-2.132 7.641-3.245a1.866 1.866 0 0 0 .163-2.796"/></svg>