<svg xmlns="http://www.w3.org/2000/svg" width="246" height="39" fill="none"><g fill="#000" clip-path="url(#a)"><path d="M49.709 16.087c0-4.94-3.33-7.615-8.529-7.615-4.824 0-8.766 2.504-8.766 7.271h3.636c0-2.47 2.073-4.253 5.097-4.253 3.227 0 4.824 1.44 4.824 4.562v1.51l-6.761.377c-6.082.343-7.917 4.081-7.917 6.929 0 3.395 2.548 6.791 7.645 6.791 3.16 0 5.878-1.51 7.203-3.67h.238c.476 2.058 1.869 3.396 4.587 3.396h1.087V28.16h-2.412V16.052zm-3.704 5.66c0 3.84-2.412 6.825-6.455 6.825-3.16 0-4.417-1.955-4.417-3.773 0-2.71 2.242-3.876 4.45-4.013l6.422-.343zM137.916.377h-4.995l-14.474 16.567V.377h-3.908v30.7h3.908v-8.713l5.572-6.277 9.786 14.99h4.756L126.703 13zM66.835 8.472c-2.583 0-5.844 1.303-6.83 3.876l-.272-3.259h-3.295V39h3.737V28.4c1.087 2.23 3.907 3.328 6.626 3.328 2.718 0 4.79-.96 6.286-2.299 2.344-2.126 3.431-5.59 3.431-9.364 0-3.773-1.087-6.997-3.261-9.158-1.496-1.475-3.704-2.401-6.456-2.401m3.975 18.11c-1.02 1.167-2.446 1.956-4.587 1.956-1.665 0-2.82-.686-3.737-1.475-1.903-1.612-2.447-4.253-2.447-6.997s.578-5.386 2.447-6.998c.917-.789 2.072-1.44 3.737-1.44 2.14 0 3.636.789 4.655 1.99 1.36 1.646 1.835 4.08 1.835 6.448 0 2.366-.476 4.87-1.937 6.551M162.144 9.089h-3.839v21.987h3.839zM162.38.377h-4.349v4.356h4.349zM179.539 18.625l-5.232-.823c-1.801-.31-3.024-1.098-3.024-2.745 0-2.16 2.106-3.498 4.825-3.498 2.718 0 4.824 1.44 4.926 3.91h3.738c0-4.219-3.738-6.997-8.664-6.997-4.451 0-8.393 2.744-8.393 6.757 0 3.361 2.243 5.35 5.505 5.865l4.926.79c2.277.342 3.534 1.406 3.534 3.052 0 2.47-2.514 3.67-5.199 3.67-3.295 0-5.708-1.509-5.81-4.493h-3.737c0 4.665 4.077 7.58 9.377 7.58s9.005-2.47 9.005-6.997c0-3.327-2.583-5.523-5.777-6.037M196.391 2.572h-3.602v6.483h-5.062v3.156h5.062v14.886c0 2.367 1.427 4.013 4.078 4.013h4.79v-3.327h-5.232V12.177h6.116V9.02h-6.116V2.572zM211.072.377h-4.349v4.356h4.349zM210.832 9.089h-3.84v21.987h3.84zM22.222 13.72H3.906V.377H0v30.7h3.907V17.423h18.315v13.652h3.907V.377h-3.908zM146.378 13.617h-.238V9.089h-3.839v21.987h3.839V16.978c0-2.332 2.515-4.082 6.626-4.082h1.563V9.09h-.816c-4.043 0-6.285 2.195-7.169 4.528M228.06 8.506c-3.67 0-5.879 1.784-7.068 4.562h-.204V9.089h-3.737v21.987h3.737v-14.51c0-3.12 3.058-4.63 6.116-4.63 3.67 0 5.675 2.23 5.675 6.586v12.554h3.737v-13.24c0-5.934-3.194-9.33-8.29-9.33M98.502 16.087c0-4.94-3.33-7.615-8.528-7.615-4.825 0-8.767 2.504-8.767 7.271h3.636c0-2.47 2.072-4.253 5.096-4.253 3.228 0 4.825 1.44 4.825 4.562v1.51l-6.761.377c-6.082.343-7.917 4.081-7.917 6.929 0 3.395 2.548 6.791 7.645 6.791 3.16 0 5.878-1.51 7.203-3.67h.238c.476 2.058 1.869 3.396 4.587 3.396h1.087V28.16h-2.412V16.052zm-3.704 5.66c0 3.84-2.412 6.825-6.455 6.825-3.16 0-4.418-1.955-4.418-3.773 0-2.71 2.243-3.876 4.451-4.013l6.422-.343zM243.484 2.127h-.85l-2.514 2.881V2.127h-.714v5.35h.714V5.97l.951-1.098 1.699 2.607h.816l-2.039-3.156z"/><path d="M241.241 9.604c-2.616 0-4.757-2.16-4.757-4.802S238.625 0 241.241 0c2.617 0 4.757 2.161 4.757 4.802s-2.14 4.802-4.757 4.802m0-9.09c-2.344 0-4.213 1.921-4.213 4.288s1.903 4.288 4.213 4.288 4.214-1.921 4.214-4.288-1.903-4.287-4.214-4.287"/></g><defs><clipPath id="a"><path fill="#fff" d="M0 0h246v39H0z"/></clipPath></defs></svg>