<svg xmlns="http://www.w3.org/2000/svg" id="레이어_1" data-name="레이어 1" viewBox="0 0 384.9 115.59"><defs><style>.cls-1{fill:#a36d6a}</style></defs><path d="m96.48 47.06.46 3.09 7.55 2.78c.2 5.53.3 11.57.3 18.16v24.24c0 3.06 0 5.49-.07 7.37v10.89c3.68 0 7.31-.11 11-.11 3.48 0 7 .07 10.49.1V64q0-11.74.45-22.14l-.83-.6c-9.33 2.01-16.95 3.95-29.35 5.8M290.18 105.42q-12.94 0-19.92-7t-7-21.65q0-12.57 5.52-20.07t14.14-7.5a16.4 16.4 0 0 1 5.51.76l5.82 18.82 4.16-.67q2.05-11.69 4.77-22.29a57.9 57.9 0 0 0-22-4.3q-18 0-29.6 10.77T240 80.5q0 16 10.66 25.52t27.22 9.57a52.16 52.16 0 0 0 25.94-7.08l-.61-4.52a63.5 63.5 0 0 1-13.03 1.43M113.46 27.46a12.84 12.84 0 1 0-12.77-12.84 12.79 12.79 0 0 0 12.77 12.84M384.9 72.29q0-14.39-8.27-22.55t-23.48-8.18q-17.38 0-28.62 10.66t-11.22 27.52q0 17.69 11.68 26.77t30.13 9.07a64.45 64.45 0 0 0 29.48-7.07l-.6-4.74a84 84 0 0 1-15.72 1.42q-17 0-24.47-6.62c-5-4.43-7.44-11.67-7.44-21.77h48.31c.14-1.55.22-3.05.22-4.51m-23-2.79h-25.23a31.8 31.8 0 0 1 4.42-14.8q3.82-6.14 10.24-6.13a8.64 8.64 0 0 1 8 4.44q2.6 4.45 2.6 14.68ZM78.91 91V64.53q0-11-6.26-17t-17.33-6c-8.31 0-16.72 7.23-25.25 12.3v-31.1q0-11.73.46-22.13L29.7 0C20.33 2 12.6 4 0 5.79l.45 3.09 7.85 3q.3 8.28.3 18.14v83.50999999999999q5.46-.06 11-.06t10.56.06V97.7c0-3.1-.05-6.34-.05-9.74V61.18C33.28 58.25 38.82 52 43 52q7.19 0 10.82 4t3.62 13.29v44.26c3.53 0 7.26-.07 11.21-.07 3.45 0 6.86.08 10.29.11V95.42c-.03-1.42-.03-2.87-.03-4.42M223.58 91V64.53q0-11-6.27-17t-17.32-6c-8.32 0-16.73 7.5-25.25 13.12V41.94l-1.13-.6c-9.63 2.11-17 4-28.65 5.72l.46 3.09 7.58 2.79q.31 8.36.31 18.22v24.77q0 4.44-.08 9.26a1 1 0 0 0 0 .08v8.26q5.49-.06 11-.06c3.65 0 7.15 0 10.52.06V62.64c2.58-3.22 8.74-10.64 12.91-10.64q7.2 0 10.82 4c2.2 2.43 3.34 6.39 3.54 11.71v45.84c3.55 0 7.28-.07 11.23-.07 3.48 0 6.9.08 10.35.11v-12.76c0-2.66-.02-5.9-.02-9.83" class="cls-1"/></svg>